<?xml version="1.0" encoding="utf-8"?>
<!-- Generator: Adobe Illustrator 19.2.1, SVG Export Plug-In . SVG Version: 6.00 Build 0)  -->
<svg version="1.1" id="layer" xmlns="http://www.w3.org/2000/svg" xmlns:xlink="http://www.w3.org/1999/xlink" x="0px" y="0px"
	 viewBox="0 0 652 652" style="enable-background:new 0 0 652 652;" xml:space="preserve">
<style type="text/css">
	.st0{fill:#FFFFFF;}
	.st1{fill:#00B9EF;}
	.st2{fill:#18ADC2;}
	.st3{fill:#74C6BE;}
	.st4{fill:#BDE1D6;}
	.st5{fill:#231815;}
</style>
<g>
	<path class="st0" d="M153.8,223.3L297.3,79.8c10.2-10.2,26.8-10.2,37,0l143.5,143.5c10.2,10.2,10.2,26.8,0,37L334.4,403.8
		c-10.2,10.2-26.8,10.2-37,0L153.8,260.3C143.6,250.1,143.6,233.5,153.8,223.3"/>
	<path class="st1" d="M315.8,405.5c-5.2,0-10.3-2-14.2-5.9L158.1,256.1c-3.9-3.9-5.9-9.1-5.9-14.2l61.8,3.6l4,67.4l3.9-66.9l84.9,5
		l4.7,80.1l-61.5,3.6l61.9,3.6L315.8,405.5z"/>
	<path class="st2" d="M404.8,324.9l-0.6,0.6l-83.9,4.9l4.7-79.6l84.5-5L404.8,324.9z M479.5,241.8c0,5.2-2,10.3-5.9,14.2l-51.8,51.8
		l-3.7-62.4L479.5,241.8z M387.1,342.6l-57,57c-3.9,3.9-9.1,5.9-14.2,5.9l3.9-66.8L387.1,342.6z"/>
	<path class="st3" d="M315.9,78.1c5.2,0,10.3,2,14.2,5.9l143.5,143.5c3.9,3.9,5.9,9.1,5.9,14.2l-61.8-3.6l-4-67.4l-3.9,66.9l-84.9-5
		l-4.7-80.1l61.5-3.6l-61.9-3.6L315.9,78.1z"/>
	<path class="st4" d="M244.6,141L301.6,84c3.9-3.9,9.1-5.9,14.2-5.9l-3.9,66.8L244.6,141z M226.9,158.7l0.6-0.6l83.9-4.9l-4.7,79.6
		l-84.5,5L226.9,158.7z M158.1,227.6l51.8-51.8l3.7,62.4l-61.3,3.6C152.2,236.6,154.1,231.5,158.1,227.6"/>
	<path class="st5" d="M105.7,570.8H72c-13,0-23-1-30.1-3c-7.1-2-13-5.6-17.9-10.7C13.3,546,8,530.3,8,510.1
		c0-22.4,6.9-39.4,20.6-51.1c4.4-3.6,9-6.2,13.9-7.7c4.9-1.5,11.4-2.2,19.5-2.2h43.8v21.7H72c-8.8,0-15.2,0.6-19.2,1.8
		c-4.1,1.2-7.5,3.6-10.1,7.1c-1.8,2.4-3,4.8-3.7,7.1c-0.6,2.3-1.2,6.5-1.6,12.6h68.4v21.7H37.3c0.9,10.3,3.9,17.6,9.2,21.7
		c5.3,4.1,14.1,6.2,26.5,6.2h32.6V570.8z M206.9,542.9c0,5.5-1.4,10.6-4.1,15.5c-2.7,4.9-6.2,8.2-10.3,10
		c-3.5,1.6-10.2,2.4-19.9,2.4h-50.5v-19h43.4c5.7,0,9.5-0.1,11.5-0.4c4-0.5,6-2.9,6-7.3c0-3.9-1.6-6.5-4.7-7.7
		c-1.7-0.6-5-0.9-10-0.9h-15c-10.2,0-17.7-1.8-22.4-5.5c-6.7-5.2-10-12.7-10-22.3c0-9.4,3.4-16.6,10.2-21.7
		c3.7-2.8,10.2-4.2,19.7-4.2h52.2v19h-43.4c-4.7,0-7.8,0.3-9.3,0.7c-2.8,1.1-4.2,3.5-4.2,7.1c0,4.1,1.7,6.8,5.1,7.8
		c1.8,0.6,5.4,0.9,10.8,0.9h14.4c9.7,0,17.3,2.2,22.6,6.6C204.3,528.5,206.9,534.8,206.9,542.9 M278.5,570.8h-17.7
		c-10.7,0-18.3-2.5-22.7-7.5c-4.4-5-6.7-13.6-6.7-25.9V501h-15.5v-19h15.5v-32.8h24.4V482h22.6v19h-22.6v32.3c0,7.7,0.8,12.7,2.5,15
		c1.6,2.4,5.1,3.6,10.5,3.6h9.7V570.8z M361.8,449.2l-23.9,23h-14.2l15.7-23H361.8z M381,570.8h-51.4c-8.1,0-13.2-0.1-15.1-0.2
		c-6-0.6-10.6-2.1-13.9-4.6c-6.8-5-10.2-12.2-10.2-21.7c0-6.1,1.5-11.5,4.5-16.1c3-4.7,6.9-7.8,11.8-9.4c4.1-1.3,10.8-2,20.1-2h29.9
		v-1.5c0-5.5-1.3-9.2-4-11.3c-2.7-2.1-7.5-3.1-14.6-3.1h-41.2v-19h41.2c9.5,0,15.8,0.3,19,0.9c6.6,1.2,11.9,4.2,16.1,8.9
		c5.4,6.2,8,15.9,8,29V570.8z M356.5,551.9v-16.1h-32.3c-6.1,0-9.1,2.7-9.1,8.2c0,5.2,4.4,7.8,13.1,7.8H356.5z M477.8,570.8h-33.4
		c-8.9,0-16-0.9-21.3-2.7c-5.3-1.8-9.9-5-13.9-9.5c-7.7-8.5-11.5-19.5-11.5-33c0-15.4,4.6-27.1,13.7-34.8c6.8-5.8,17.8-8.8,33-8.8
		h33.4v19h-29.2c-9.1,0-15.7,2-19.8,5.9c-4.1,4-6.1,10.4-6.1,19.2c0,9,2.3,15.5,6.8,19.6c4.5,4.1,11.8,6.1,21.9,6.1h26.4V570.8z
		 M521.2,472.9h-24.4v-23.7h24.4V472.9z M521.2,570.8h-24.4V482h24.4V570.8z M633.2,527.4c0,13.9-4.3,24.8-12.8,32.7
		c-8.5,8-20.2,12-35,12c-14.4,0-25.6-4.1-33.8-12.2c-8.2-8.2-12.3-19.3-12.3-33.6c0-14,4.2-25.1,12.7-33.3
		c8.5-8.2,19.8-12.3,34.2-12.3c14.8,0,26.4,4.1,34.7,12.3C629.1,501.3,633.2,512.7,633.2,527.4 M608.2,526.5c0-18-7.5-27-22.4-27
		c-14.3,0-21.5,9-21.5,27c0,17.9,7.4,26.8,22.3,26.8C601,553.3,608.2,544.4,608.2,526.5"/>
</g>
</svg>
